<svg width="1834" height="710" viewBox="0 0 1834 710" fill="none" xmlns="http://www.w3.org/2000/svg">
<path fill-rule="evenodd" clip-rule="evenodd" d="M1063.53 324.584C1046.83 324.584 1001.58 324.448 1001.58 324.448V290.801H1064.07C1087.41 290.801 1099.08 284.017 1099.08 270.45V260.559C1099.07 254.056 1097.37 249.081 1093.97 245.635C1090.74 242.189 1084.81 240.466 1076.19 240.466H1055.72C1017.29 240.466 998.083 223.231 998.083 188.761V173.199C998.083 156.014 1004.46 143.351 1017.21 135.211C1029.96 127.07 1050.16 123 1077.8 123H1132.48V156.823H1076.46C1062.28 156.823 1052.76 158.139 1047.9 160.772C1045.45 162.01 1043.41 163.934 1042.02 166.311C1040.64 168.688 1039.97 171.415 1040.11 174.162V189.087C1040.11 199.425 1047.82 204.594 1063.26 204.594H1084.19C1104.16 204.612 1118.62 208.773 1127.59 217.076C1136.57 225.379 1141.05 238.042 1141.05 255.065V265.294C1141.06 288.82 1133.61 304.739 1118.7 313.051C1111.3 317.397 1103.18 320.384 1094.73 321.87C1084.45 323.842 1074 324.751 1063.53 324.584ZM763.449 323.973C767.401 324.38 772.791 324.584 779.618 324.584C792.721 324.584 823.783 324.448 823.783 324.448V296.906H782.06C762.165 296.906 752.218 289.096 752.218 273.476V222.218C752.173 208.425 761.216 201.528 779.347 201.528H823.783V174.149H768.034C763.897 174.312 759.19 174.868 753.765 175.668C749.363 176.244 745.032 177.267 740.838 178.721C736.637 180.476 732.658 182.721 728.983 185.41C725.547 187.722 722.632 190.725 720.424 194.229C714.998 203.156 712.285 214.299 712.285 227.659V273.788C712.285 290.412 715.966 302.166 723.326 309.049C726.648 312.611 730.457 315.685 734.639 318.18C739.11 320.424 743.939 321.866 748.909 322.44C754.66 323.254 759.507 323.765 763.449 323.973ZM888.539 325.588C895.161 326.27 901.816 326.578 908.472 326.51C914.947 326.561 921.42 326.253 927.861 325.588C934.006 324.937 940.06 323.613 945.915 321.64C951.764 319.912 957.091 316.755 961.415 312.454C965.739 308.152 968.925 302.842 970.684 297.001C973.527 289.316 974.908 281.167 974.753 272.974V228.5C974.946 219.609 973.569 210.754 970.684 202.342C968.411 196.175 964.829 190.574 960.185 185.925C955.718 181.759 950.381 178.64 944.559 176.795C939.257 174.9 933.739 173.674 928.133 173.145C921.605 172.452 915.042 172.149 908.478 172.236C902.917 172.227 896.722 172.426 889.895 172.833C883.614 173.529 877.455 175.066 871.583 177.405C866.135 179.246 861.102 182.141 856.771 185.925C852.476 189.977 848.972 195.653 846.259 202.952C843.411 211.162 842.033 219.811 842.19 228.5V272.974C841.99 281.267 843.371 289.523 846.259 297.3C848.404 303.322 851.802 308.82 856.229 313.431C860.737 317.391 866.07 320.297 871.841 321.938C877.283 323.666 882.872 324.887 888.539 325.588ZM925.176 297.001C921.396 298.213 915.83 298.819 908.478 298.819H908.465C901.104 298.828 895.56 298.222 891.835 297.001C888.447 295.91 885.56 293.644 883.696 290.611C882.258 287.775 881.54 283.57 881.54 278.143V221.513C881.54 213.399 883.425 207.719 887.196 204.472C890.967 201.225 898.061 199.601 908.478 199.601C918.886 199.628 925.976 201.252 929.747 204.472C933.518 207.692 935.403 213.372 935.403 221.513V278.143C935.403 283.61 934.603 287.775 932.989 290.611C931.297 293.662 928.501 295.948 925.176 297.001ZM1364.03 324.584C1317.91 324.584 1294.86 308.665 1294.86 276.827L1294.84 224.796C1294.85 206.353 1300.05 192.971 1310.45 184.65C1321.04 176.338 1337.29 172.182 1359.2 172.182C1379.85 172.182 1394.93 176.252 1404.45 184.392C1414.14 192.307 1418.98 205.793 1418.98 224.85V261.767H1334.37V273.231C1334.4 281.779 1337.12 287.861 1342.51 291.479C1347.9 295.097 1357.59 296.906 1371.6 296.906H1415.2V324.448C1415.2 324.448 1382.17 324.584 1364.03 324.584ZM1380.4 208.014C1379.45 206.092 1378.02 204.45 1376.24 203.251H1376.17C1372.76 200.818 1366.93 199.601 1358.66 199.601C1349.15 199.61 1342.78 200.827 1339.55 203.251C1337.87 204.53 1336.53 206.195 1335.64 208.103C1334.75 210.012 1334.33 212.108 1334.42 214.213V235.5H1381.67V214.213C1381.79 212.072 1381.36 209.936 1380.4 208.014ZM1529.57 174.149H1449.05L1449.03 324.448H1488.36V201.528H1514.47C1520.58 201.528 1525.07 202.138 1527.94 203.359C1529.33 203.843 1530.59 204.644 1531.62 205.699C1532.65 206.754 1533.42 208.034 1533.87 209.438C1534.95 212.278 1535.48 216.538 1535.48 222.218V324.448H1574.82V216.438C1574.81 201.831 1571.4 191.185 1564.58 184.501C1557.94 177.6 1546.27 174.149 1529.57 174.149ZM1216.09 323.973C1220.04 324.38 1225.42 324.584 1232.24 324.584C1245.36 324.584 1276.35 324.448 1276.35 324.448V296.906H1234.62C1214.72 296.906 1204.78 289.096 1204.78 273.476V222.218C1204.77 208.425 1213.83 201.528 1231.97 201.528H1276.41V174.149H1220.66C1216.54 174.312 1211.81 174.868 1206.39 175.668C1201.99 176.244 1197.66 177.267 1193.46 178.721C1189.26 180.482 1185.29 182.727 1181.61 185.41C1178.18 187.717 1175.26 190.711 1173.05 194.201C1167.62 203.129 1164.91 214.281 1164.91 227.659V273.788C1164.92 290.412 1168.6 302.17 1175.95 309.063C1179.28 312.618 1183.09 315.692 1187.26 318.193C1191.74 320.44 1196.57 321.882 1201.55 322.454C1207.28 323.268 1212.14 323.77 1216.09 323.973ZM1729.6 224.633V261.496L1644.97 261.523V272.974C1645.01 281.53 1647.72 287.617 1653.11 291.235C1658.5 294.853 1668.2 296.662 1682.2 296.662H1725.79V324.177C1725.79 324.177 1692.75 324.326 1674.63 324.326C1628.51 324.326 1605.45 308.402 1605.45 276.555V224.592C1605.45 206.132 1610.65 192.75 1621.06 184.447C1631.65 176.125 1647.9 171.965 1669.81 171.965C1690.46 171.965 1705.54 176.035 1715.06 184.175C1724.76 192.089 1729.6 205.575 1729.6 224.633ZM1646.25 207.9C1645.36 209.808 1644.94 211.905 1645.03 214.01V236.247H1692.21V213.996C1692.33 211.857 1691.89 209.724 1690.94 207.804C1689.99 205.885 1688.56 204.246 1686.78 203.047C1683.36 200.614 1677.52 199.398 1669.27 199.398C1659.76 199.407 1653.38 200.623 1650.16 203.047C1648.48 204.326 1647.14 205.991 1646.25 207.9Z" fill="#2563EB"/>
<rect x="712.285" y="390" width="1017" height="4" fill="#2563EB"/>
<path d="M758.473 457V465.798H787.223V482.136H746.69L733.494 505.701H751.718C754.231 501.46 756.274 496.904 757.845 492.191H774.969C773.241 499.889 770.256 507.115 766.171 514.185C762.086 521.097 757.216 527.381 751.718 533.037C746.219 538.536 739.935 543.249 733.337 547.019C726.581 550.79 719.826 553.146 712.756 554.246V537.75C717.155 536.336 721.554 534.294 725.953 531.623C730.352 528.952 734.436 525.81 738.364 522.197H714.327V505.859L727.681 482.293H712.285V465.955H741.035V457.157H758.473V457Z" fill="#2563EB"/>
<path d="M745.905 549.533C755.331 542.463 766.014 532.88 772.455 518.27H789.265C785.18 530.524 778.425 542.777 767.742 554.874C773.241 561.001 779.996 565.243 788.165 566.971V586.766C774.654 582.21 763.186 575.612 754.703 566.343C743.234 574.983 730.038 581.581 715.27 585.823V565.714C726.267 561.787 736.479 556.445 746.062 549.376L745.905 549.533Z" fill="#2563EB"/>
<path d="M810.159 466.426H793.664V556.131H810.159V466.426Z" fill="#2563EB"/>
<path d="M799.162 567.757H812.516C816.286 567.757 819.428 564.615 819.428 560.844V457H837.024V563.672C837.024 575.926 827.126 585.823 814.872 585.823H799.162V567.757Z" fill="#2563EB"/>
<path d="M1008.44 492.505C1021.8 484.021 1032.16 470.197 1035.78 457H1054C1048.97 480.565 1032.16 502.245 1008.44 514.499V492.505Z" fill="#2563EB"/>
<path d="M1038.29 495.647H1057.46C1054.32 506.644 1049.45 516.541 1042.85 525.025V585.823H1024.47V542.62C1019.28 546.234 1013.94 549.533 1008.29 552.204V530.052C1022.58 521.883 1032.48 510.415 1038.13 495.49L1038.29 495.647Z" fill="#2563EB"/>
<path d="M1060.6 499.103H1137.58V517.17H1119.04V566.028C1119.04 576.868 1110.24 585.666 1099.4 585.666H1068.3V567.285H1094.85C1097.99 567.285 1100.66 564.772 1100.66 561.472V517.17H1060.6V498.946V499.103Z" fill="#2563EB"/>
<path d="M1128.78 462.341H1065.94V480.565H1128.78V462.341Z" fill="#2563EB"/>
<path d="M1358.14 461.399V577.811H1309.29V461.399H1358.14ZM1341.02 510.257V478.837H1326.25V510.257H1341.02ZM1341.02 560.373V527.224H1326.25V560.373H1341.02ZM1363.33 474.595H1406.22V457H1424.44V474.595H1435.12V492.976H1424.44V563.201C1424.44 575.769 1414.07 585.823 1401.66 585.823H1377.47V567.442H1400.25C1403.55 567.442 1406.22 564.772 1406.22 561.472V492.976H1363.33V474.595ZM1382.97 505.23L1395.85 552.518H1377L1364.11 505.23H1382.97Z" fill="#2563EB"/>
<path d="M1606.29 504.13C1623.72 500.674 1640.53 495.176 1656.56 487.635V503.816C1643.2 510.415 1626.39 515.756 1606.29 519.841V504.13ZM1606.29 567.757H1658.44V541.521H1610.06V523.611H1726V541.521H1677.14V567.757H1729.3V585.98H1606.29V567.757ZM1606.29 464.541H1658.44V457H1677.14V464.541H1729.3V493.605H1710.91V482.136H1624.67V493.605H1606.29V464.541ZM1679.02 487.635C1695.2 495.176 1711.86 500.674 1729.3 504.13V519.841C1709.19 515.756 1692.38 510.415 1679.02 503.816V487.635Z" fill="#2563EB"/>
<path d="M517.084 137.069L368.461 222.954L368.259 222.82L280.771 273.41V105.926C319.839 92.1882 361.587 87.849 402.641 93.2593C443.694 98.6696 482.9 113.677 517.084 137.069Z" fill="#2563EB"/>
<path d="M394.819 238.168L539.647 154.441C562.248 173.846 581.416 196.93 596.342 222.721L482.232 288.691L394.819 238.168Z" fill="#2563EB"/>
<path d="M482.203 420.59V592.382C530.126 569.296 569.982 532.278 596.571 486.165L596.154 486.411L482.203 420.59Z" fill="#2563EB"/>
<path d="M254.272 420.516V420.375L105.743 334.536C105.248 341.167 105 347.862 105 354.624C104.959 392.679 113.168 430.289 129.059 464.858C144.95 499.43 168.145 530.135 197.044 554.856L341.871 471.183L254.272 420.516Z" fill="#2563EB"/>
<path d="M254.45 288.625L254.272 288.736V389.946L109.459 306.226C124.946 222.5 179.989 152.67 254.45 116.862V288.625Z" fill="#2563EB"/>
<path d="M219.649 572.229L368.193 486.367L368.267 486.411L455.851 435.783V603.319C416.803 617.046 375.077 621.384 334.045 615.983C293.014 610.582 253.826 595.594 219.649 572.229Z" fill="#2563EB"/>
</svg>
